<svg width="24" height="24" viewBox="0 0 24 24" fill="none" xmlns="http://www.w3.org/2000/svg">
<path fill-rule="evenodd" clip-rule="evenodd" d="M12.398 19.804C13.881 19.0348 19 16.0163 19 11C19 7.13401 15.866 4 12 4C8.13401 4 5 7.13401 5 11C5 16.0163 10.119 19.0348 11.602 19.804C11.8548 19.9351 12.1452 19.9351 12.398 19.804ZM12 14C13.6569 14 15 12.6569 15 11C15 9.34315 13.6569 8 12 8C10.3431 8 9 9.34315 9 11C9 12.6569 10.3431 14 12 14Z" fill="#0067A0"/>
<path d="M18.3999 10.9999C18.3999 13.2906 17.2327 15.1562 15.8289 16.5721C14.4257 17.9875 12.8362 18.9006 12.1217 19.2712L12.6742 20.3365C13.4426 19.9379 15.1541 18.9572 16.6811 17.417C18.2076 15.8773 19.5999 13.7255 19.5999 10.9999H18.3999ZM11.9999 4.5999C15.5345 4.5999 18.3999 7.46528 18.3999 10.9999H19.5999C19.5999 6.80254 16.1973 3.3999 11.9999 3.3999V4.5999ZM5.5999 10.9999C5.5999 7.46528 8.46528 4.5999 11.9999 4.5999V3.3999C7.80254 3.3999 4.3999 6.80254 4.3999 10.9999H5.5999ZM11.8781 19.2712C11.1636 18.9006 9.57412 17.9875 8.17087 16.5721C6.76707 15.1562 5.5999 13.2906 5.5999 10.9999H4.3999C4.3999 13.7255 5.79225 15.8773 7.31869 17.417C8.8457 18.9572 10.5572 19.9379 11.3256 20.3365L11.8781 19.2712ZM12.1217 19.2712C12.042 19.3126 11.9578 19.3126 11.8781 19.2712L11.3256 20.3365C11.7517 20.5575 12.2481 20.5575 12.6742 20.3365L12.1217 19.2712ZM14.3999 10.9999C14.3999 12.3254 13.3254 13.3999 11.9999 13.3999V14.5999C13.9881 14.5999 15.5999 12.9881 15.5999 10.9999H14.3999ZM11.9999 8.5999C13.3254 8.5999 14.3999 9.67442 14.3999 10.9999H15.5999C15.5999 9.01168 13.9881 7.3999 11.9999 7.3999V8.5999ZM9.5999 10.9999C9.5999 9.67442 10.6744 8.5999 11.9999 8.5999V7.3999C10.0117 7.3999 8.3999 9.01168 8.3999 10.9999H9.5999ZM11.9999 13.3999C10.6744 13.3999 9.5999 12.3254 9.5999 10.9999H8.3999C8.3999 12.9881 10.0117 14.5999 11.9999 14.5999V13.3999Z" fill="#0067A0"/>
</svg>
