<svg width="24" height="24" viewBox="0 0 24 24" fill="none" xmlns="http://www.w3.org/2000/svg">
<path d="M17.7073 13.7071L20.3554 16.3552C20.7115 16.7113 20.7115 17.2887 20.3554 17.6448C18.4302 19.57 15.3823 19.7866 13.2042 18.153L11.6288 16.9714C9.88523 15.6638 8.33641 14.115 7.02876 12.3714L5.8472 10.796C4.2136 8.61787 4.4302 5.56998 6.35542 3.64476C6.71152 3.28866 7.28886 3.28866 7.64496 3.64476L10.2931 6.29288C10.6836 6.68341 10.6836 7.31657 10.2931 7.7071L9.27194 8.72824C9.10965 8.89053 9.06942 9.13845 9.17206 9.34372C10.3587 11.7171 12.2831 13.6415 14.6565 14.8281C14.8617 14.9308 15.1097 14.8905 15.2719 14.7283L16.2931 13.7071C16.6836 13.3166 17.3168 13.3166 17.7073 13.7071Z" fill="#0067A0" stroke="#0067A0" stroke-width="1.2"/>
</svg>
