<svg width="1157" height="790" viewBox="0 0 1157 790" fill="none" xmlns="http://www.w3.org/2000/svg">
<path d="M608.416 88.4098C607.919 88.1478 607.367 88.0108 606.805 88.0108C606.244 88.0108 605.692 88.1478 605.195 88.4098L600.18 76.8116L610.382 65.014L618.76 48.0869C619.375 46.8082 619.491 45.346 619.085 43.9863C618.679 42.6266 617.781 41.4672 616.566 40.7348L575.245 16.9115L548.002 1.20982C547.432 0.896354 546.749 1.20982 546.093 0.953347C545.411 0.742177 544.697 0.655305 543.984 0.696876C543.033 1.03071 542.188 1.61087 541.534 2.37818C541.249 2.63465 540.821 2.66315 540.593 3.00512L540.194 3.60354L518.394 36.3748L490.354 20.1601L489.869 19.8752L481.32 14.8882L469.693 8.19152H469.494C469.152 8.00784 468.771 7.91004 468.383 7.90655C467.681 7.92984 466.996 8.12558 466.388 8.47648L424.184 32.8412C423.051 33.5885 422.082 34.558 421.334 35.6909C421.107 36.0328 420.964 36.2893 420.765 36.6313C420.477 37.049 420.219 37.4871 419.995 37.9421H420.223C419.816 38.727 419.51 39.56 419.311 40.4213L414.638 87.6404C414.154 90.961 412.616 94.0381 410.249 96.4174C401.881 104.143 394.046 112.426 386.796 121.21C385.778 122.345 384.459 123.17 382.991 123.589C381.524 124.007 379.969 124.002 378.504 123.575L351.432 114.114C350.782 114 350.116 114 349.466 114.114L348.896 113.8C348.512 113.881 348.139 114.005 347.784 114.171C347.431 114.246 347.087 114.361 346.758 114.513C345.576 114.984 344.577 115.823 343.909 116.907L312.904 170.623C312.209 171.881 311.968 173.34 312.22 174.755C312.42 176.242 313.148 177.608 314.272 178.602L335.987 197.353C337.094 198.401 337.881 199.743 338.254 201.221C338.627 202.7 338.572 204.254 338.095 205.702C334.118 216.369 330.852 227.289 328.321 238.388C327.455 241.624 325.566 244.493 322.935 246.567L284.408 273.696C283.325 274.531 282.423 275.578 281.757 276.773C280.747 278.314 280.157 280.092 280.048 281.931V330.661C279.996 331.267 280.106 331.877 280.366 332.428C280.626 332.978 281.028 333.45 281.529 333.795L330.373 361.978L312.562 397.913C311.95 399.195 311.838 400.659 312.249 402.02C312.66 403.38 313.565 404.537 314.785 405.265L381.183 443.736C382.424 444.423 383.877 444.623 385.257 444.297C386.638 443.97 387.847 443.14 388.649 441.969L418.827 411.135C418.845 411.707 419.002 412.265 419.285 412.762C419.568 413.259 419.968 413.679 420.451 413.985L482.317 449.663L483.942 401.218C483.942 401.218 470.862 384.32 471.147 381.442L538.57 308.006C539.97 308.448 541.478 308.408 542.853 307.892C544.227 307.375 545.389 306.411 546.15 305.156L577.069 251.639C577.76 250.341 578 248.851 577.753 247.402C577.505 245.953 576.784 244.627 575.701 243.632L605.566 148.538C606.828 147.538 607.864 146.282 608.606 144.853C609.348 143.423 609.778 141.853 609.869 140.245L609.612 131.44C616.195 133.805 622.464 136.227 623.177 138.507C623.346 139.141 623.653 139.729 624.077 140.23C624.5 140.73 625.029 141.131 625.625 141.404C626.222 141.676 626.871 141.813 627.527 141.805C628.182 141.797 628.828 141.644 629.418 141.357L666.976 124.458C668.023 123.956 669.212 123.835 670.339 124.116L608.416 88.4098ZM444.987 293.586C426.863 304.045 411.931 306.267 401.045 301.195C388.278 295.268 491.835 117.733 502.693 127.365C511.498 135.23 516.257 149.763 516.257 170.11C516.2 215.448 484.284 270.703 444.93 293.444L444.987 293.586Z" fill="#005280"/>
<path opacity="0.1" d="M608.416 88.4098C607.919 88.1478 607.367 88.0108 606.805 88.0108C606.244 88.0108 605.692 88.1478 605.195 88.4098L600.18 76.8116L610.382 65.014L618.76 48.0869C619.375 46.8082 619.491 45.346 619.085 43.9863C618.679 42.6266 617.781 41.4672 616.566 40.7348L575.245 16.9115L548.002 1.20982C547.432 0.896354 546.749 1.20982 546.093 0.953347C545.411 0.742177 544.697 0.655305 543.984 0.696876C543.033 1.03071 542.188 1.61087 541.534 2.37818C541.249 2.63465 540.821 2.66315 540.593 3.00512L540.194 3.60354L518.394 36.3748L490.354 20.1601L489.869 19.8752L481.32 14.8882L469.693 8.19152H469.494C469.152 8.00784 468.771 7.91004 468.383 7.90655C467.681 7.92984 466.996 8.12558 466.388 8.47648L424.184 32.8412C423.051 33.5885 422.082 34.558 421.334 35.6909C421.107 36.0328 420.964 36.2893 420.765 36.6313C420.477 37.049 420.219 37.4871 419.995 37.9421H420.223C419.816 38.727 419.51 39.56 419.311 40.4213L414.638 87.6404C414.154 90.961 412.616 94.0381 410.249 96.4174C401.881 104.143 394.046 112.426 386.796 121.21C385.778 122.345 384.459 123.17 382.991 123.589C381.524 124.007 379.969 124.002 378.504 123.575L351.432 114.114C350.782 114 350.116 114 349.466 114.114L348.896 113.8C348.512 113.881 348.139 114.005 347.784 114.171C347.431 114.246 347.087 114.361 346.758 114.513C345.576 114.984 344.577 115.823 343.909 116.907L312.904 170.623C312.209 171.881 311.968 173.34 312.22 174.755C312.42 176.242 313.148 177.608 314.272 178.602L335.987 197.353C337.094 198.401 337.881 199.743 338.254 201.221C338.627 202.7 338.572 204.254 338.095 205.702C334.118 216.369 330.852 227.289 328.321 238.388C327.455 241.624 325.566 244.493 322.935 246.567L284.408 273.696C283.325 274.531 282.423 275.578 281.757 276.773C280.747 278.314 280.157 280.092 280.048 281.931V330.661C279.996 331.267 280.106 331.877 280.366 332.428C280.626 332.978 281.028 333.45 281.529 333.795L330.373 361.978L312.562 397.913C311.95 399.195 311.838 400.659 312.249 402.02C312.66 403.38 313.565 404.537 314.785 405.265L381.183 443.736C382.424 444.423 383.877 444.623 385.257 444.297C386.638 443.97 387.847 443.14 388.649 441.969L418.827 411.135C418.845 411.707 419.002 412.265 419.285 412.762C419.568 413.259 419.968 413.679 420.451 413.985L482.317 449.663L483.942 401.218C483.942 401.218 470.862 384.32 471.147 381.442L538.57 308.006C539.97 308.448 541.478 308.408 542.853 307.892C544.227 307.375 545.389 306.411 546.15 305.156L577.069 251.639C577.76 250.341 578 248.851 577.753 247.402C577.505 245.953 576.784 244.627 575.701 243.632L605.566 148.538C606.828 147.538 607.864 146.282 608.606 144.853C609.348 143.423 609.778 141.853 609.869 140.245L609.612 131.44C616.195 133.805 622.464 136.227 623.177 138.507C623.346 139.141 623.653 139.729 624.077 140.23C624.5 140.73 625.029 141.131 625.625 141.404C626.222 141.676 626.871 141.813 627.527 141.805C628.182 141.797 628.828 141.644 629.418 141.357L666.976 124.458C668.023 123.956 669.212 123.835 670.339 124.116L608.416 88.4098ZM444.987 293.586C426.863 304.045 411.931 306.267 401.045 301.195C388.278 295.268 491.835 117.733 502.693 127.365C511.498 135.23 516.257 149.763 516.257 170.11C516.2 215.448 484.284 270.703 444.93 293.444L444.987 293.586Z" fill="black"/>
<path opacity="0.15" d="M491.123 135.629C492.092 134.489 492.976 133.492 493.973 132.58V53.9574L436.98 25.2327L423.814 32.8128C422.681 33.5601 421.712 34.5296 420.964 35.6625C420.736 36.0044 420.594 36.2609 420.395 36.6029C420.107 37.0206 419.849 37.4587 419.625 37.9137H419.853C419.446 38.6986 419.14 39.5316 418.941 40.3929L414.638 87.6405C414.436 88.7445 414.092 89.8174 413.612 90.8321L491.123 135.629Z" fill="black"/>
<path opacity="0.15" d="M448.834 161.362L383.291 123.404C381.767 123.985 380.094 124.045 378.532 123.575L351.46 114.114C350.81 114 350.145 114 349.494 114.114L348.924 113.801C348.541 113.881 348.168 114.005 347.813 114.171C347.459 114.246 347.115 114.361 346.787 114.513C345.605 114.984 344.606 115.824 343.937 116.907L331.199 138.992L334.362 154.38L419.653 179.457L448.834 161.362Z" fill="black"/>
<path opacity="0.15" d="M408.397 243.432L393.664 195.614L317.521 162.416L312.762 170.68C312.067 171.938 311.825 173.397 312.078 174.812C312.277 176.299 313.005 177.665 314.13 178.659L335.844 197.41C336.552 198.117 337.112 198.956 337.494 199.881C337.875 200.805 338.07 201.796 338.067 202.796L408.397 243.432Z" fill="black"/>
<path opacity="0.15" d="M411.788 387.996L362.945 359.813L343.396 369.644L330.287 362.064L312.477 397.998C311.864 399.28 311.753 400.745 312.164 402.105C312.575 403.465 313.479 404.623 314.7 405.351L373.944 439.547L411.788 387.996Z" fill="black"/>
<path opacity="0.15" d="M599.867 158.141L512.809 139.277L511.185 140.644C514.706 150.02 516.389 159.985 516.144 169.996C516.144 215.591 484.227 270.704 444.902 293.444C432.677 300.483 422.104 303.503 412.985 303.361L425.809 394.151L421.734 414.897L482.204 449.777L483.828 401.333C483.828 401.333 470.748 384.434 471.033 381.556L538.457 308.12C539.857 308.563 541.365 308.522 542.739 308.006C544.114 307.489 545.275 306.526 546.037 305.27L577.07 251.639C577.76 250.341 578.001 248.851 577.753 247.402C577.506 245.953 576.784 244.627 575.702 243.632L599.924 166.69C599.867 161.362 599.867 158.141 599.867 158.141Z" fill="black"/>
<path opacity="0.15" d="M670.367 124.145C669.241 123.864 668.052 123.985 667.005 124.487L629.446 141.385C628.857 141.672 628.211 141.825 627.555 141.833C626.899 141.842 626.25 141.705 625.654 141.432C625.057 141.16 624.528 140.759 624.105 140.258C623.682 139.757 623.375 139.169 623.205 138.536C621.723 133.805 596.019 128.362 593.911 124.287L608.415 88.4099L670.367 124.145Z" fill="black"/>
<path opacity="0.15" d="M618.674 48.1155L610.296 65.0426L583.338 96.161L551.564 77.8091L507.081 52.162C507.978 51.5973 508.745 50.8496 509.332 49.9678L540.508 3.09066C541.303 1.92931 542.5 1.10334 543.868 0.771871C545.236 0.440399 546.678 0.626867 547.917 1.29536L575.16 17.0256L616.48 40.8488C617.674 41.5792 618.558 42.7235 618.963 44.0637C619.368 45.4039 619.265 46.8462 618.674 48.1155Z" fill="black"/>
<path opacity="0.15" d="M325.643 243.603C324.865 244.751 323.902 245.763 322.793 246.595L284.265 273.724C283.175 274.552 282.272 275.601 281.615 276.802L346.417 314.303L397.54 285.208L325.643 243.603Z" fill="black"/>
<path d="M348.839 113.829C347.809 113.912 346.813 114.237 345.932 114.776C345.05 115.316 344.309 116.055 343.766 116.935L312.762 170.651C312.067 171.91 311.825 173.368 312.078 174.783L379.986 214.08L422.446 156.659L348.839 113.829Z" fill="#005280"/>
<path opacity="0.7" d="M348.839 113.829C347.809 113.912 346.813 114.237 345.932 114.776C345.05 115.316 344.309 116.055 343.766 116.935L312.762 170.651C312.067 171.91 311.825 173.368 312.078 174.783L379.986 214.08L422.446 156.659L348.839 113.829Z" fill="white"/>
<path d="M531.475 43.9551V59.4003L493.887 81.0008L419.482 38.2557C420.354 36.0974 421.866 34.2576 423.814 32.9838L465.932 8.47664C466.568 8.08603 467.295 7.86981 468.041 7.84972C468.488 7.8456 468.929 7.95335 469.323 8.16318L489.641 19.8468L490.183 20.1603L518.224 36.3749L531.475 43.9551Z" fill="#005280"/>
<path opacity="0.7" d="M531.475 43.9551V59.4003L493.887 81.0008L419.482 38.2557C420.354 36.0974 421.866 34.2576 423.814 32.9838L465.932 8.47664C466.568 8.08603 467.295 7.86981 468.041 7.84972C468.488 7.8456 468.929 7.95335 469.323 8.16318L489.641 19.8468L490.183 20.1603L518.224 36.3749L531.475 43.9551Z" fill="white"/>
<path d="M671.906 176.037V127.336C671.996 126.741 671.912 126.133 671.664 125.584C671.417 125.036 671.017 124.57 670.513 124.242C670.008 123.915 669.419 123.74 668.818 123.737C668.216 123.735 667.626 123.906 667.119 124.23L629.56 141.157C628.971 141.444 628.325 141.597 627.669 141.606C627.014 141.614 626.364 141.477 625.768 141.204C625.171 140.932 624.643 140.531 624.219 140.03C623.796 139.529 623.489 138.941 623.32 138.308C621.285 131.791 618.472 125.543 614.942 119.699C614.165 118.326 613.71 116.794 613.612 115.22C613.513 113.645 613.773 112.069 614.372 110.609L639.392 60.1411C640.004 58.8591 640.116 57.3945 639.705 56.0344C639.294 54.6743 638.389 53.5169 637.169 52.789L610.012 37.0873C608.77 36.3995 607.317 36.1995 605.937 36.5262C604.556 36.853 603.347 37.683 602.545 38.8541L571.37 85.7027C570.413 86.957 569.18 87.9744 567.767 88.6761C566.353 89.3777 564.798 89.7449 563.22 89.7492C556.388 89.6097 549.564 90.3084 542.902 91.8295C542.261 92.0138 541.587 92.0524 540.929 91.9426C540.271 91.8328 539.646 91.5773 539.1 91.1949C538.554 90.8125 538.1 90.3127 537.771 89.7323C537.443 89.1518 537.249 88.5053 537.202 87.84L533.127 46.8047C533.145 46.2051 532.992 45.6128 532.686 45.0968C532.38 44.5809 531.934 44.1626 531.399 43.8908C530.864 43.6189 530.263 43.5048 529.666 43.5615C529.069 43.6183 528.5 43.8437 528.026 44.2115L485.88 68.6047C484.528 69.488 483.379 70.6485 482.509 72.0094C481.64 73.3702 481.069 74.9003 480.836 76.4983L476.618 123.432C476.144 126.787 474.594 129.897 472.201 132.295C463.842 140.021 456.016 148.304 448.777 157.087C447.758 158.223 446.439 159.048 444.972 159.466C443.505 159.885 441.949 159.88 440.485 159.452L413.384 149.991C411.984 149.549 410.476 149.589 409.101 150.105C407.727 150.622 406.566 151.586 405.804 152.841L374.743 206.386C374.052 207.684 373.811 209.175 374.059 210.624C374.306 212.073 375.028 213.399 376.11 214.394L397.825 233.116C398.938 234.161 399.729 235.502 400.102 236.982C400.476 238.462 400.418 240.018 399.934 241.466C395.952 252.129 392.696 263.049 390.188 274.152C389.31 277.389 387.411 280.258 384.773 282.33L346.246 309.516C344.98 310.519 343.942 311.78 343.2 313.214C342.458 314.649 342.03 316.224 341.943 317.837V366.538C341.854 367.133 341.938 367.741 342.185 368.29C342.432 368.839 342.832 369.305 343.337 369.632C343.841 369.96 344.43 370.135 345.032 370.137C345.633 370.139 346.223 369.968 346.73 369.644L384.289 352.717C384.881 352.43 385.528 352.277 386.186 352.269C386.843 352.261 387.494 352.397 388.093 352.67C388.691 352.942 389.223 353.342 389.649 353.843C390.075 354.344 390.385 354.932 390.558 355.567C392.571 362.087 395.375 368.336 398.908 374.175C399.698 375.543 400.161 377.076 400.26 378.653C400.359 380.231 400.091 381.809 399.478 383.266L374.458 433.733C373.845 435.015 373.733 436.48 374.144 437.84C374.556 439.2 375.46 440.358 376.68 441.085L403.838 456.759C405.076 457.449 406.526 457.654 407.907 457.332C409.287 457.011 410.498 456.187 411.304 455.02L442.508 408.115C443.471 406.86 444.709 405.842 446.127 405.141C447.545 404.439 449.104 404.072 450.686 404.068C457.509 404.192 464.321 403.494 470.976 401.988C471.615 401.804 472.286 401.765 472.942 401.873C473.598 401.981 474.222 402.234 474.767 402.613C475.313 402.993 475.768 403.489 476.098 404.066C476.428 404.643 476.625 405.286 476.675 405.949L480.779 446.956C480.761 447.555 480.914 448.148 481.22 448.664C481.526 449.18 481.972 449.598 482.507 449.87C483.042 450.141 483.643 450.256 484.24 450.199C484.837 450.142 485.406 449.917 485.88 449.549L528.055 425.184C529.404 424.304 530.55 423.148 531.42 421.792C532.289 420.437 532.861 418.912 533.099 417.319L537.174 370.442C537.658 367.121 539.196 364.044 541.562 361.665C549.914 353.932 557.74 345.65 564.987 336.873C566.005 335.737 567.324 334.912 568.792 334.494C570.259 334.075 571.815 334.08 573.279 334.508L600.38 343.969C601.784 344.408 603.295 344.367 604.673 343.85C606.052 343.334 607.218 342.373 607.988 341.119L638.993 287.403C639.688 286.106 639.932 284.614 639.684 283.164C639.436 281.714 638.711 280.387 637.625 279.395L615.91 260.673C614.797 259.628 614.007 258.287 613.633 256.807C613.259 255.327 613.318 253.771 613.802 252.323C617.787 241.652 621.043 230.722 623.548 219.609C624.44 216.378 626.336 213.514 628.962 211.43L667.49 184.301C668.769 183.316 669.825 182.069 670.586 180.644C671.348 179.219 671.798 177.649 671.906 176.037ZM506.939 329.236C467.585 352.033 435.697 333.539 435.697 288.086C435.697 242.634 467.613 187.351 506.939 164.639C546.264 141.927 578.181 160.336 578.181 205.788C578.181 251.24 546.293 306.495 506.939 329.236Z" fill="#005280"/>
<path d="M724.312 497.195L790.196 482.406H790.054L761.899 466.106L735.767 450.974C735.206 450.638 734.569 450.451 733.915 450.432L710.804 449.15C710.298 449.169 709.794 449.086 709.321 448.906C708.848 448.725 708.416 448.451 708.052 448.1C707.687 447.749 707.397 447.328 707.2 446.862C707.002 446.396 706.9 445.895 706.9 445.388C707.556 437.965 707.556 430.499 706.9 423.075C706.952 420.584 707.846 418.183 709.436 416.265L746.482 413.244C748.05 411.335 778.313 382.126 778.313 382.126H778.171L723.799 350.637C723.483 350.472 723.129 350.393 722.773 350.409L679.03 325.075C678.222 324.632 677.293 324.462 676.38 324.591L649.394 327.241C648.15 327.378 646.96 327.826 645.934 328.543C644.909 329.26 644.08 330.223 643.523 331.345L628.905 370.556C627.612 373.048 625.541 375.049 623.006 376.255C620.156 377.595 617.306 379.105 614.457 380.758L586.16 364.401C585.02 363.66 583.31 364.116 581.771 365.683L552.163 397.029C551.313 397.873 550.666 398.899 550.271 400.03C549.876 401.16 549.743 402.366 549.883 403.555L558.119 431.454C558.49 433.806 557.95 436.211 556.608 438.179C551.594 445.781 547.046 453.679 542.987 461.831C541.552 464.192 539.251 465.9 536.575 466.59L511.242 472.688C509.985 472.989 508.816 473.578 507.827 474.409C506.838 475.24 506.055 476.29 505.542 477.476L492.776 520.392C492.601 520.947 492.6 521.542 492.773 522.097C492.946 522.652 493.285 523.141 493.745 523.498C494.315 523.954 522.441 540.14 522.441 540.14C522.441 544.073 522.583 547.891 522.925 551.539C522.881 554.035 521.998 556.445 520.418 558.378L494.571 589.724C493.81 590.586 493.273 591.621 493.004 592.739C492.736 593.857 492.746 595.023 493.032 596.136L505.286 623.265C505.455 623.625 505.721 623.931 506.055 624.148L560.484 655.637C560.484 655.637 560.484 655.495 560.655 655.409C560.933 655.55 561.2 655.712 561.453 655.894L605.224 681.199C605.993 679.147 628.192 587.16 629.161 588.584L642.982 609.701C643.094 609.879 643.239 610.034 643.409 610.157L669.712 625.459L698.209 641.902L677.663 577.784C695.815 583.854 737.164 505.859 724.312 497.195ZM564.73 539.941L664.924 434.36C667.858 441.304 669.268 448.796 669.057 456.331C671.252 455.032 673.527 453.871 675.867 452.855C676.067 455.191 676.181 457.642 676.181 460.235C676.181 494.802 651.93 536.777 622.037 554.046C619.843 555.3 617.705 556.412 615.654 557.381C615.323 554.782 615.18 552.163 615.226 549.544C593.825 562.054 573.535 559.204 564.844 540.026L564.73 539.941Z" fill="#005280"/>
<g opacity="0.1">
<path d="M724.312 497.195L790.196 482.406H790.054L761.899 466.106L735.767 450.974C735.206 450.638 734.569 450.451 733.915 450.432L710.804 449.15C710.298 449.169 709.794 449.086 709.321 448.906C708.848 448.725 708.416 448.451 708.052 448.1C707.687 447.749 707.397 447.328 707.2 446.862C707.002 446.396 706.9 445.895 706.9 445.388C707.556 437.965 707.556 430.499 706.9 423.075C706.952 420.584 707.846 418.183 709.436 416.265L746.482 413.244C748.05 411.335 778.313 382.126 778.313 382.126H778.171L723.799 350.637C723.483 350.472 723.129 350.393 722.773 350.409L679.03 325.075C678.222 324.632 677.293 324.462 676.38 324.591L649.394 327.241C648.15 327.378 646.96 327.826 645.934 328.543C644.909 329.26 644.08 330.223 643.523 331.345L628.905 370.556C627.612 373.048 625.541 375.049 623.006 376.255C620.156 377.595 617.306 379.105 614.457 380.758L586.16 364.401C585.02 363.66 583.31 364.116 581.771 365.683L552.163 397.029C551.313 397.873 550.666 398.899 550.271 400.03C549.876 401.16 549.743 402.366 549.883 403.555L558.119 431.454C558.49 433.806 557.95 436.211 556.608 438.179C551.594 445.781 547.046 453.679 542.987 461.831C541.552 464.192 539.251 465.9 536.575 466.59L511.242 472.688C509.985 472.989 508.816 473.578 507.827 474.409C506.838 475.24 506.055 476.29 505.542 477.476L492.776 520.392C492.601 520.947 492.6 521.542 492.773 522.097C492.946 522.652 493.285 523.141 493.745 523.498C494.315 523.954 522.441 540.14 522.441 540.14C522.441 544.073 522.583 547.891 522.925 551.539C522.881 554.035 521.998 556.445 520.418 558.378L494.571 589.724C493.81 590.586 493.273 591.621 493.004 592.739C492.736 593.857 492.746 595.023 493.032 596.136L505.286 623.265C505.455 623.625 505.721 623.931 506.055 624.148L560.484 655.637C560.484 655.637 560.484 655.495 560.655 655.409C560.933 655.55 561.2 655.712 561.453 655.894L605.224 681.199C605.993 679.147 628.192 587.16 629.161 588.584L642.982 609.701C643.094 609.879 643.239 610.034 643.409 610.157L669.712 625.459L698.209 641.902L677.663 577.784C695.815 583.854 737.164 505.859 724.312 497.195ZM564.73 539.941L664.924 434.36C667.858 441.304 669.268 448.796 669.057 456.331C671.252 455.032 673.527 453.871 675.867 452.855C676.067 455.191 676.181 457.642 676.181 460.235C676.181 494.802 651.93 536.777 622.037 554.046C619.843 555.3 617.705 556.412 615.654 557.381C615.323 554.782 615.18 552.163 615.226 549.544C593.825 562.054 573.535 559.204 564.844 540.026L564.73 539.941Z" fill="black"/>
</g>
<path opacity="0.15" d="M740.241 482.292L724.425 449.862L710.804 449.093C710.298 449.112 709.794 449.029 709.321 448.848C708.848 448.668 708.416 448.394 708.052 448.043C707.687 447.692 707.397 447.27 707.199 446.804C707.001 446.338 706.9 445.837 706.9 445.331C707.242 441.256 707.413 437.295 707.413 433.391L669.341 438.521L667.204 441.057C668.495 446.053 669.118 451.199 669.056 456.359C671.252 455.061 673.527 453.899 675.867 452.883C676.067 455.22 676.18 457.67 676.18 460.264C676.18 494.83 651.93 536.806 622.037 554.075C619.842 555.329 617.705 556.44 615.653 557.409C615.323 554.81 615.18 552.191 615.226 549.572C609.268 553.189 602.67 555.627 595.791 556.753L595.278 558.15L623.063 609.444H623.291C626.539 596.877 628.99 587.843 629.303 588.299L643.124 609.415C643.236 609.594 643.381 609.748 643.552 609.871L669.854 625.174L698.351 641.617L677.805 577.499C695.957 583.768 737.306 505.773 724.454 497.11L737.192 494.26L740.241 482.292Z" fill="black"/>
<path opacity="0.1" d="M595.25 606.538C595.25 606.538 573.536 632.185 557.064 653.472L560.399 655.381C560.399 655.381 560.399 655.239 560.569 655.153C560.848 655.293 561.115 655.455 561.367 655.637L605.138 680.943C605.594 679.746 613.516 647.117 620.156 620.928L595.25 606.538Z" fill="black"/>
<path opacity="0.1" d="M521.956 555.386C521.555 556.409 521.008 557.369 520.332 558.235L494.486 589.582C493.725 590.444 493.187 591.479 492.919 592.596C492.651 593.714 492.66 594.88 492.947 595.994L505.2 623.122C505.37 623.483 505.636 623.789 505.97 624.006L521.842 633.182L549.684 642.899L585.875 592.403L521.956 555.386Z" fill="black"/>
<path opacity="0.05" d="M564.844 540.026L569.546 535.039C547.062 529.682 516.086 522.387 516.086 522.387L513.236 534.64L522.355 539.884C522.355 543.816 522.498 547.635 522.84 551.282C522.867 552.673 522.564 554.05 521.956 555.3L585.874 592.346C585.874 592.346 604.084 560.23 603.201 558.749C603.001 558.378 602.26 557.21 601.234 555.614C585.39 559.945 571.598 554.93 564.844 540.026Z" fill="black"/>
<path opacity="0.1" d="M602.146 500.644L540.023 464.738C538.985 465.464 537.827 466.004 536.604 466.334L511.27 472.432C510.014 472.733 508.845 473.322 507.855 474.153C506.866 474.984 506.084 476.034 505.571 477.219L496.252 508.566L555.697 533.614L590.919 512.669L602.146 500.644Z" fill="black"/>
<path opacity="0.1" d="M618.361 469.782L635.031 438.435L623.633 397.799L560.627 387.625L552.078 396.716C551.227 397.559 550.58 398.585 550.185 399.716C549.79 400.847 549.658 402.052 549.798 403.242L558.033 431.14C558.286 432.352 558.218 433.61 557.834 434.788L618.361 469.782Z" fill="black"/>
<path opacity="0.1" d="M625.97 374.118L694.191 413.5C694.191 413.5 706.986 366.367 712.913 344.595C697.725 335.818 679.515 325.275 679.002 324.933C678.194 324.49 677.264 324.32 676.352 324.448L649.366 327.098C648.122 327.236 646.932 327.683 645.906 328.4C644.88 329.117 644.051 330.081 643.495 331.202L628.876 370.413C628.203 371.854 627.208 373.121 625.97 374.118Z" fill="black"/>
<path d="M560.455 655.438L557.862 630.219L492.89 592.717C492.542 593.752 492.542 594.873 492.89 595.908L505.143 623.009C505.307 623.382 505.587 623.692 505.941 623.892L560.455 655.438Z" fill="#005280"/>
<path d="M568.691 511.302L506.369 475.453C505.962 475.951 505.653 476.521 505.457 477.134L492.69 520.05C492.509 520.609 492.505 521.21 492.678 521.771C492.852 522.332 493.194 522.826 493.659 523.185L494.115 523.47L522.213 539.713H522.355L548.458 554.845L568.691 511.302Z" fill="#005280"/>
<path d="M550.026 400.506L604.512 431.852L640.474 395.804L586.074 364.287C584.963 363.574 583.225 364.059 581.714 365.598L552.106 396.944C551.143 397.952 550.43 399.172 550.026 400.506Z" fill="#005280"/>
<path d="M679.002 324.961C678.202 324.494 677.268 324.313 676.352 324.448L649.365 327.099C647.679 327.327 646.106 328.074 644.863 329.236L715.763 370.186L733.858 359.727L733.345 356.422C733.345 356.422 679.885 325.503 679.002 324.961Z" fill="#005280"/>
<path opacity="0.3" d="M560.455 655.438L557.862 630.219L492.89 592.717C492.542 593.752 492.542 594.873 492.89 595.908L505.143 623.009C505.307 623.382 505.587 623.692 505.941 623.892L560.455 655.438Z" fill="white"/>
<path opacity="0.3" d="M568.691 511.302L506.369 475.453C505.962 475.951 505.653 476.521 505.457 477.134L492.69 520.05C492.509 520.609 492.505 521.21 492.678 521.771C492.852 522.332 493.194 522.826 493.659 523.185L494.115 523.47L522.213 539.713H522.355L548.458 554.845L568.691 511.302Z" fill="white"/>
<path opacity="0.7" d="M550.026 400.506L604.512 431.852L640.474 395.804L586.074 364.287C584.963 363.574 583.225 364.059 581.714 365.598L552.106 396.944C551.143 397.952 550.43 399.172 550.026 400.506Z" fill="white"/>
<path opacity="0.7" d="M679.002 324.961C678.202 324.494 677.268 324.313 676.352 324.448L649.365 327.099C647.679 327.327 646.106 328.074 644.863 329.236L715.763 370.186L733.858 359.727L733.345 356.422C733.345 356.422 679.885 325.503 679.002 324.961Z" fill="white"/>
<path d="M790.196 482.406H790.054C789.533 482.137 788.958 481.991 788.372 481.978L765.261 480.667C764.756 480.686 764.251 480.603 763.778 480.423C763.305 480.243 762.874 479.968 762.509 479.617C762.144 479.266 761.855 478.845 761.657 478.379C761.459 477.913 761.357 477.412 761.357 476.906C761.671 473.258 761.87 469.611 761.899 466.105C761.927 462.3 761.756 458.495 761.386 454.707C761.446 452.217 762.339 449.819 763.922 447.896L789.74 416.55C790.503 415.689 791.045 414.655 791.318 413.538C791.591 412.421 791.588 411.254 791.307 410.138L779.025 383.066C778.885 382.704 778.623 382.402 778.284 382.211H778.142C777.434 382.005 776.682 382.011 775.977 382.229C775.273 382.447 774.648 382.867 774.181 383.436L746.596 408.628C745.857 409.453 744.858 410.001 743.765 410.182C742.672 410.364 741.55 410.167 740.583 409.625C737.044 406.726 733.06 404.416 728.786 402.786C727.825 402.43 727.017 401.754 726.498 400.871C725.979 399.988 725.78 398.953 725.936 397.941L734.485 359.357C734.618 358.837 734.572 358.287 734.355 357.796C734.138 357.305 733.762 356.901 733.288 356.65C732.507 356.249 731.624 356.09 730.752 356.194L703.765 358.872C702.52 359.004 701.328 359.45 700.302 360.168C699.275 360.885 698.447 361.851 697.895 362.976L683.276 402.187C682.003 404.693 679.926 406.7 677.378 407.887C671.565 410.671 665.981 413.911 660.678 417.576C658.427 419.086 655.891 419.2 654.979 417.576L641.187 396.488C640.218 395.006 637.995 395.32 636.2 397.172L606.592 428.518C605.743 429.351 605.096 430.367 604.7 431.488C604.305 432.609 604.172 433.806 604.312 434.987L612.547 462.914C612.913 465.262 612.384 467.662 611.066 469.639C606.043 477.231 601.484 485.12 597.416 493.263C595.984 495.633 593.683 497.351 591.004 498.05L565.67 503.978C564.424 504.291 563.264 504.882 562.277 505.706C561.29 506.53 560.502 507.566 559.971 508.737L547.204 551.681C547.068 552.152 547.049 552.649 547.148 553.13C547.247 553.61 547.462 554.059 547.773 554.437C548.085 554.816 548.484 555.113 548.936 555.303C549.388 555.493 549.879 555.571 550.368 555.528L573.507 556.839C574.012 556.824 574.515 556.91 574.986 557.092C575.457 557.273 575.887 557.548 576.251 557.898C576.614 558.249 576.904 558.668 577.104 559.132C577.303 559.596 577.407 560.096 577.411 560.601C576.713 568.022 576.713 575.492 577.411 582.914C577.372 585.403 576.488 587.804 574.903 589.724L549.085 621.071C548.32 621.93 547.777 622.964 547.503 624.082C547.23 625.199 547.235 626.367 547.518 627.482L559.771 654.583C559.914 654.944 560.176 655.245 560.512 655.438C560.818 655.605 561.161 655.694 561.51 655.694C562.655 655.597 563.727 655.092 564.53 654.269L592.058 629.078C592.802 628.251 593.803 627.699 594.9 627.513C595.997 627.326 597.125 627.517 598.1 628.052C601.64 630.942 605.611 633.26 609.869 634.92C610.833 635.261 611.647 635.93 612.168 636.811C612.689 637.691 612.884 638.727 612.718 639.736L604.169 678.349C604.05 678.855 604.097 679.385 604.302 679.862C604.507 680.34 604.86 680.738 605.309 680.999C606.09 681.402 606.976 681.552 607.845 681.427L634.803 678.777C636.049 678.634 637.24 678.184 638.27 677.468C639.299 676.752 640.135 675.792 640.702 674.673L655.35 635.462C656.634 632.963 658.708 630.96 661.248 629.762C664.098 628.423 666.948 626.913 669.797 625.26C672.647 623.607 675.212 621.954 677.947 620.102C680.17 618.563 682.735 618.449 683.647 619.931L697.468 641.047C697.635 641.296 697.86 641.501 698.123 641.645C699.235 642.329 700.973 641.873 702.426 640.335L732.034 608.988C732.884 608.15 733.531 607.129 733.926 606.003C734.321 604.877 734.454 603.676 734.314 602.491L726.078 574.593C725.718 572.241 726.258 569.839 727.589 567.867C732.615 560.278 737.155 552.378 741.182 544.215C742.639 541.85 744.959 540.144 747.65 539.456L772.956 533.358C774.212 533.057 775.381 532.468 776.37 531.637C777.36 530.806 778.142 529.756 778.655 528.57L791.421 485.654C791.604 485.053 791.582 484.409 791.361 483.822C791.139 483.234 790.73 482.736 790.196 482.406ZM655.008 587.274L653.497 587.644L652.443 587.901L650.049 588.299L647.199 588.556H645.49H644.663C639.199 588.605 633.848 586.997 629.316 583.945C624.784 580.893 621.282 576.539 619.273 571.458C617.274 566.94 616.023 562.128 615.568 557.21C615.237 554.611 615.094 551.992 615.141 549.373C615.283 524.923 627.85 494.631 648.567 472.717C654.561 466.259 661.44 460.685 669 456.16C671.195 454.861 673.47 453.7 675.81 452.684C681.794 449.901 688.333 448.517 694.931 448.637H695.131H696.1H697.097H698.123C702.815 449.328 707.243 451.24 710.964 454.18C714.685 457.121 717.568 460.988 719.325 465.393C730.723 490.698 717.643 534.868 690.03 564.02C678.489 576.844 666.207 584.395 655.008 587.274Z" fill="#005280"/>
<path d="M18.8648 714.186C13.4219 717.292 3.24863 717.036 0 720.883V734.248L62.0659 725.186L85.5187 738.921L76.5992 757.558L13.9064 753.397V766.762C15.2173 767.674 16.6136 768.558 18.0954 769.441C44.3124 784.801 87.143 785 113.759 769.869C127.181 762.231 133.878 752.172 133.878 742.113V728.776L130.202 729.375L129.774 728.634L364.587 593.075C388.382 598.09 416.052 595.155 435.288 584.212C445.261 578.513 451.531 571.56 454.124 564.265V550.9L392.058 573.327L368.662 559.449L377.582 540.783L440.275 531.607V518.242C440.275 518.242 367.038 513.37 340.536 528.501C333.758 532.068 328.039 537.356 323.951 543.832L320.417 542.55V555.801C320.371 560.759 321.8 565.62 324.521 569.765L89.5368 705.352C65.7705 700.337 38.1001 703.243 18.8648 714.186Z" fill="#37474F"/>
<path d="M364.673 593.075V579.71L129.831 715.269V728.634L364.673 593.075Z" fill="#37474F"/>
<path d="M324.378 556.428L89.5368 691.987C65.7705 687 38.1001 689.907 18.8648 700.849C8.86247 706.549 2.6217 713.502 0 720.797L62.0659 711.735L85.5472 725.471L76.6278 744.136L13.9349 753.312C15.2458 754.224 16.6421 755.136 18.124 755.991C44.341 771.379 87.1716 771.55 113.788 756.418C133.279 745.333 138.608 729.118 129.803 715.183L364.644 579.624C388.411 584.64 416.081 581.733 435.316 570.79C445.318 565.091 451.559 558.109 454.181 550.843L392.115 559.905L368.634 546.169L377.553 527.532L440.246 518.328C438.935 517.416 437.539 516.533 436.057 515.649C409.84 500.29 367.009 500.09 340.394 515.222C320.902 526.279 315.573 542.493 324.378 556.428Z" fill="#455A64"/>
<path d="M373.678 549.047L368.662 546.141L377.582 527.504L440.246 518.299V531.664L377.582 540.84L373.678 549.047Z" fill="#263238"/>
<path d="M80.5318 736.014L85.5472 725.585L62.0659 711.821L0 720.883V734.248L62.0659 725.186L80.5318 736.014Z" fill="#263238"/>
<path d="M931.039 522.249L980.11 607.226L1145.68 511.705C1152.49 508.314 1156.76 500.306 1156.76 488.908C1156.76 466.766 1141.23 439.836 1122.05 428.751C1112.45 423.194 1103.76 422.681 1097.46 426.329L931.039 522.249Z" fill="#005280"/>
<path d="M921.178 539.86C920.466 552.797 902.143 555.59 902.143 555.59L936.852 615.746C936.852 615.746 948.45 601.498 960.019 607.197C977.117 614.607 990.397 605.431 990.397 584.998C990.397 562.856 974.838 535.927 955.659 524.842C937.906 514.554 923.316 521.337 921.178 539.86Z" fill="#005280"/>
<path opacity="0.05" d="M921.178 539.86C920.466 552.797 902.143 555.59 902.143 555.59L936.852 615.746C936.852 615.746 948.45 601.498 960.019 607.197C977.117 614.607 990.397 605.431 990.397 584.998C990.397 562.856 974.838 535.927 955.659 524.842C937.906 514.554 923.316 521.337 921.178 539.86Z" fill="black"/>
<path opacity="0.05" d="M910.435 552.968C907.777 554.166 904.983 555.037 902.114 555.561L936.823 615.718C938.715 613.518 940.868 611.556 943.235 609.876C942.323 588.874 928.16 564.281 910.435 552.968Z" fill="black"/>
<path d="M865.923 559.808L868.773 564.823C867.733 568.318 867.224 571.949 867.263 575.595C867.263 597.765 882.822 624.695 902 635.751C905.133 637.606 908.523 638.989 912.06 639.855L914.909 644.87L926.479 638.202C932.777 634.555 936.652 626.803 936.652 615.718C936.652 593.548 921.122 566.618 901.943 555.562C892.34 550.033 883.677 549.492 877.379 553.139L865.923 559.808Z" fill="#005280"/>
<path d="M925.254 622.386C925.254 600.244 909.723 573.315 890.545 562.23C871.366 551.144 855.807 560.149 855.807 582.177C855.807 604.205 871.366 631.249 890.545 642.334C909.723 653.419 925.254 644.528 925.254 622.386Z" fill="#005280"/>
<path opacity="0.15" d="M925.254 622.386C925.254 600.244 909.723 573.315 890.545 562.23C871.366 551.144 855.807 560.149 855.807 582.177C855.807 604.205 871.366 631.249 890.545 642.334C909.723 653.419 925.254 644.528 925.254 622.386Z" fill="black"/>
<path opacity="0.15" d="M877.009 631.391C879.621 634.199 882.483 636.765 885.558 639.057L893.708 615.889L883.876 608.679L877.009 631.391Z" fill="black"/>
<path opacity="0.2" d="M1128.52 464.913C1129.15 466.002 1129.56 467.205 1129.72 468.451C1129.89 469.698 1129.8 470.965 1129.48 472.179C1129.15 473.394 1128.59 474.533 1127.82 475.53C1127.06 476.528 1126.1 477.365 1125.02 477.994L1006.75 546.386C1005.67 547.018 1004.46 547.429 1003.22 547.595C1001.97 547.762 1000.7 547.679 999.485 547.354C998.269 547.028 997.13 546.465 996.133 545.697C995.136 544.93 994.3 543.972 993.674 542.881C993.045 541.792 992.637 540.589 992.473 539.343C992.309 538.096 992.392 536.829 992.717 535.615C993.043 534.4 993.604 533.261 994.37 532.264C995.136 531.266 996.09 530.429 997.179 529.801L1115.44 461.408C1116.53 460.78 1117.73 460.372 1118.98 460.207C1120.23 460.043 1121.49 460.126 1122.71 460.452C1123.92 460.777 1125.06 461.339 1126.06 462.104C1127.05 462.87 1127.89 463.824 1128.52 464.913Z" fill="black"/>
<path opacity="0.2" d="M1107.18 439.466C1110.91 442.601 1110.71 446.989 1106.75 449.297L986.265 518.858C984.034 519.943 981.541 520.375 979.075 520.103C976.609 519.83 974.271 518.865 972.33 517.319C968.597 514.213 968.768 509.796 972.758 507.516L1093.24 437.956C1095.47 436.856 1097.96 436.414 1100.43 436.681C1102.9 436.949 1105.24 437.915 1107.18 439.466Z" fill="black"/>
<path opacity="0.2" d="M1139.86 496.117C1139.04 491.301 1135.13 489.278 1131.17 491.558L1010.66 561.118C1008.59 562.505 1006.96 564.448 1005.95 566.722C1004.95 568.996 1004.6 571.509 1004.96 573.97C1005.81 578.758 1009.72 580.809 1013.68 578.501L1134.22 508.855C1136.27 507.479 1137.88 505.554 1138.88 503.3C1139.88 501.046 1140.22 498.556 1139.86 496.117Z" fill="black"/>
<path d="M586 762.647V785.815L643.877 767.007C643.877 767.007 655.475 745.72 667.045 739.023L886.983 612.042L893.765 592.835L886.983 588.902L667.045 715.884C655.475 722.552 643.877 714.658 643.877 714.658L586 762.647Z" fill="#455A64"/>
<path d="M592.782 766.58V789.748L650.659 771.025C650.659 771.025 662.229 749.738 673.827 743.07L893.765 616.089V592.949L673.827 719.731C662.229 726.399 650.659 718.477 650.659 718.477L592.782 766.58Z" fill="#37474F"/>
<path d="M592.782 789.747L586 785.815V762.647L592.782 766.58V789.747Z" fill="#263238"/>
<path d="M586 762.647L592.782 766.58L650.659 718.563L643.877 714.659L586 762.647Z" fill="#455A64"/>
</svg>
