<svg width="293" height="475" viewBox="0 0 293 475" fill="none" xmlns="http://www.w3.org/2000/svg">
<path d="M117.229 474.029L143.757 424.158L122.416 362.876V325.158L187.7 362.876V400.594L159.689 449.205C159.24 449.959 158.566 450.555 157.762 450.909L117.229 474.029Z" fill="#0067A0"/>
<path opacity="0.3" d="M117.229 474.029L143.757 424.158L122.416 362.876V325.158L187.7 362.876V400.594L159.689 449.205C159.24 449.959 158.566 450.555 157.762 450.909L117.229 474.029Z" fill="black"/>
<path d="M0 47.7936C0.373718 40.9994 2.33888 34.3881 5.737 28.4929C9.13512 22.5976 13.871 17.5835 19.5629 13.8548L35.4948 4.66616C41.5729 1.59828 48.2865 0 55.095 0C61.9035 0 68.6168 1.59828 74.6949 4.66616L273.363 119.154C279.077 122.866 283.833 127.874 287.246 133.772C290.658 139.669 292.63 146.289 293 153.093V422.158C292.63 428.962 290.658 435.581 287.246 441.479C283.833 447.377 279.077 452.385 273.363 456.097L257.431 465.286C251.363 468.388 244.646 470.006 237.831 470.006C231.016 470.006 224.299 468.388 218.231 465.286L146.722 424.085L118.712 472.696C118.271 473.309 117.677 473.796 116.989 474.106C116.301 474.417 115.544 474.541 114.792 474.466C114.041 474.391 113.323 474.119 112.71 473.678C112.097 473.237 111.612 472.643 111.301 471.955L81.6606 386.441L19.7112 350.798C14.0168 347.089 9.2773 342.09 5.87811 336.206C2.47892 330.321 0.515763 323.718 0.148123 316.933L0 47.7936Z" fill="#0067A0"/>
<path opacity="0.3" d="M293.001 422.158C292.631 428.961 290.659 435.581 287.247 441.479C283.834 447.376 279.078 452.385 273.364 456.096L257.432 465.285C251.921 468.074 245.881 469.661 239.711 469.942C233.541 470.223 227.382 469.191 221.641 466.915C230.829 470.398 237.869 465.137 237.869 454.022V185.03C237.618 178.22 235.628 171.588 232.089 165.764L287.221 133.9C290.76 139.751 292.749 146.407 293.001 153.241V422.158Z" fill="black"/>
<path opacity="0.3" d="M0.591797 42.236C2.88897 33.9365 10.5215 31.2688 19.5619 36.456L218.304 151.018C224.117 154.667 228.869 159.777 232.087 165.838L287.145 134.049C283.927 127.987 279.174 122.877 273.362 119.228L74.694 4.66616C68.6159 1.59828 61.9025 0 55.0941 0C48.2856 0 41.572 1.59828 35.4939 4.66616L19.5619 13.9289C14.643 17.1114 10.4241 21.2626 7.16258 26.1294C3.90105 30.9962 1.66535 36.4766 0.591797 42.236Z" fill="white"/>
<path d="M91.1456 336.495H88.7743C85.8455 336.104 83.0622 334.982 80.6797 333.234C78.2973 331.486 76.3922 329.168 75.1395 326.491L39.867 251.722C38.636 249.592 37.8624 247.228 37.5956 244.782C37.3288 242.336 37.5747 239.862 38.3175 237.516C39.0602 235.17 40.2833 233.005 41.9093 231.158C43.5352 229.312 45.5283 227.824 47.7611 226.79C49.9939 225.757 52.4175 225.2 54.8776 225.155C57.3377 225.11 59.7801 225.578 62.0493 226.529C64.3184 227.48 66.3645 228.894 68.0569 230.68C69.7494 232.466 71.0509 234.585 71.879 236.902L95.5176 287.069L177.03 192.441C178.25 190.081 179.986 188.026 182.108 186.428C184.23 184.83 186.684 183.73 189.289 183.209C191.894 182.689 194.583 182.76 197.156 183.42C199.729 184.079 202.121 185.308 204.155 187.017C206.189 188.726 207.812 190.871 208.905 193.292C209.997 195.714 210.531 198.35 210.466 201.006C210.402 203.661 209.741 206.268 208.533 208.634C207.324 210.999 205.599 213.063 203.485 214.671L104.336 330.122C102.716 332.06 100.702 333.631 98.4274 334.73C96.153 335.829 93.6706 336.431 91.1456 336.495Z" fill="#FAFAFA"/>
</svg>
